<?xml version="1.0" standalone="no"?>
<!DOCTYPE svg PUBLIC "-//W3C//DTD SVG 20010904//EN"
 "http://www.w3.org/TR/2001/REC-SVG-20010904/DTD/svg10.dtd">
<svg version="1.0" xmlns="http://www.w3.org/2000/svg"
 width="301.000000pt" height="301.000000pt" viewBox="0 0 301.000000 301.000000"
 preserveAspectRatio="xMidYMid meet">
<metadata>
Created by potrace 1.11, written by Peter Selinger 2001-2013
</metadata>
<g transform="translate(0.000000,301.000000) scale(0.100000,-0.100000)"
fill="#000000" stroke="none">
<path d="M1485 2600 c-11 -4 -182 -102 -380 -217 -198 -115 -367 -212 -375
-216 -8 -3 -58 -32 -110 -64 l-95 -58 -2 -560 c-2 -308 1 -565 5 -572 8 -12
835 -494 945 -551 36 -18 19 -25 303 139 126 72 330 190 454 261 124 71 232
136 240 144 13 13 15 90 15 569 0 363 -3 559 -10 568 -9 11 -854 506 -940 549
-18 10 -38 13 -50 8z m250 -245 c88 -51 268 -155 400 -232 l240 -139 1 -507 1
-506 -436 -251 -436 -252 -50 28 c-27 15 -194 111 -370 212 -176 102 -336 194
-355 204 -19 11 -50 29 -68 40 l-32 20 0 507 0 507 33 17 c17 10 48 27 67 38
53 32 668 388 725 420 l50 28 35 -21 c19 -11 107 -62 195 -113z"/>
<path d="M1064 1738 c17 -73 30 -89 95 -125 31 -17 109 -61 174 -98 l117 -67
0 -367 c0 -360 0 -367 22 -413 13 -26 27 -46 33 -44 5 1 19 25 29 52 17 44 19
83 22 379 1 182 3 344 3 362 1 30 9 36 169 128 92 53 173 104 180 113 17 22
47 120 39 128 -3 3 -105 -51 -226 -120 l-220 -127 -78 46 c-43 25 -87 51 -98
57 -151 86 -210 120 -228 133 -40 28 -46 20 -33 -37z"/>
</g>
</svg>
